<svg id="_0332_online_shopping_1" xmlns="http://www.w3.org/2000/svg" viewBox="0 0 500 500" data-imageid="online-shopping-1-20" imageName="Online Shopping 1" class="illustrations_image" style="width: 215px;"><defs><style>.cls-1_online-shopping-1-20{fill:#fff;}.cls-2_online-shopping-1-20{fill:#f4a28c;}.cls-3_online-shopping-1-20{fill:#a5a5a5;}.cls-4_online-shopping-1-20{opacity:.58;}.cls-4_online-shopping-1-20,.cls-5_online-shopping-1-20,.cls-6_online-shopping-1-20,.cls-7_online-shopping-1-20,.cls-8_online-shopping-1-20,.cls-9_online-shopping-1-20,.cls-10_online-shopping-1-20,.cls-11_online-shopping-1-20,.cls-12_online-shopping-1-20{fill:none;}.cls-13_online-shopping-1-20{fill:#ce8172;}.cls-5_online-shopping-1-20{opacity:.29;}.cls-6_online-shopping-1-20{opacity:.44;}.cls-14_online-shopping-1-20{fill:#e6e6e6;}.cls-7_online-shopping-1-20{opacity:.03;}.cls-8_online-shopping-1-20{opacity:.04;}.cls-9_online-shopping-1-20{opacity:.73;}.cls-10_online-shopping-1-20{opacity:.05;}.cls-11_online-shopping-1-20{opacity:.08;}.cls-12_online-shopping-1-20{opacity:.31;}.cls-15_online-shopping-1-20{fill:#24285b;}.cls-16_online-shopping-1-20{fill:#000001;}.cls-17_online-shopping-1-20{fill:#ffd200;}.cls-18_online-shopping-1-20{fill:#68e1fd;}</style></defs><g id="sd_online-shopping-1-20" class="cls-7_online-shopping-1-20"><ellipse class="cls-16_online-shopping-1-20" cx="243.15" cy="429.49" rx="232.22" ry="28.32"/></g><g id="phone_online-shopping-1-20"><rect class="cls-3_online-shopping-1-20" x="26.47" y="42.19" width="233.77" height="388.6"/><rect class="cls-14_online-shopping-1-20" x="43.56" y="42.19" width="233.77" height="388.6"/><rect class="cls-1_online-shopping-1-20" x="65.44" y="69.53" width="190.71" height="311.7"/><g class="cls-11_online-shopping-1-20"><path class="cls-16_online-shopping-1-20" d="m229.49,267.61s-5.4,6.56-.65,11.73,23.46,7.15,8.64,27.86l-16.19-4.92-30.31,51.95,46.5,15.04-2.18,11.96h42.04v-84.35l-34.86-31.86-12.99,2.58Z"/></g><g class="cls-10_online-shopping-1-20"><path class="cls-16_online-shopping-1-20" d="m65.44,69.53v64.25h23.84s.09,13.33,14.44,13.33h173.62v-25.63l-144.23-33.49-67.67-18.46Z"/></g><polygon class="cls-18_online-shopping-1-20 targetColor" points="65.44 69.53 94.3 116.02 118.14 116.02 89.44 69.53 65.44 69.53" style="fill: rgb(104, 225, 253);"/><polygon class="cls-18_online-shopping-1-20 targetColor" points="89.27 69.53 118.14 116.02 141.98 116.02 113.28 69.53 89.27 69.53" style="fill: rgb(104, 225, 253);"/><polygon class="cls-18_online-shopping-1-20 targetColor" points="112.99 69.53 141.86 116.02 165.7 116.02 136.99 69.53 112.99 69.53" style="fill: rgb(104, 225, 253);"/><polygon class="cls-18_online-shopping-1-20 targetColor" points="136.83 69.53 165.7 116.02 189.54 116.02 160.83 69.53 136.83 69.53" style="fill: rgb(104, 225, 253);"/><polygon class="cls-18_online-shopping-1-20 targetColor" points="160.67 69.53 189.54 116.02 213.37 116.02 184.67 69.53 160.67 69.53" style="fill: rgb(104, 225, 253);"/><polygon class="cls-18_online-shopping-1-20 targetColor" points="184.51 69.53 213.37 116.02 237.21 116.02 208.51 69.53 184.51 69.53" style="fill: rgb(104, 225, 253);"/><polygon class="cls-18_online-shopping-1-20 targetColor" points="208.23 69.53 237.09 116.02 260.93 116.02 232.23 69.53 208.23 69.53" style="fill: rgb(104, 225, 253);"/><polygon class="cls-18_online-shopping-1-20 targetColor" points="232.06 69.53 260.93 116.02 284.77 116.02 256.07 69.53 232.06 69.53" style="fill: rgb(104, 225, 253);"/><g class="cls-6_online-shopping-1-20"><polygon class="cls-1_online-shopping-1-20" points="89.27 69.53 118.14 116.02 141.98 116.02 113.28 69.53 89.27 69.53"/></g><g class="cls-6_online-shopping-1-20"><polygon class="cls-1_online-shopping-1-20" points="136.83 69.53 165.7 116.02 189.54 116.02 160.83 69.53 136.83 69.53"/></g><g class="cls-6_online-shopping-1-20"><polygon class="cls-1_online-shopping-1-20" points="184.51 69.53 213.37 116.02 237.21 116.02 208.51 69.53 184.51 69.53"/></g><g class="cls-6_online-shopping-1-20"><polygon class="cls-1_online-shopping-1-20" points="232.06 69.53 260.93 116.02 284.77 116.02 256.07 69.53 232.06 69.53"/></g><path class="cls-18_online-shopping-1-20 targetColor" d="m94.3,116.02h23.84v8.92c0,4.13-3.35,7.48-7.48,7.48h-8.88c-4.13,0-7.48-3.35-7.48-7.48v-8.92h0Z" style="fill: rgb(104, 225, 253);"/><path class="cls-18_online-shopping-1-20 targetColor" d="m118.14,116.02h23.84v8.92c0,4.13-3.35,7.48-7.48,7.48h-8.88c-4.13,0-7.48-3.35-7.48-7.48v-8.92h0Z" style="fill: rgb(104, 225, 253);"/><g class="cls-6_online-shopping-1-20"><path class="cls-1_online-shopping-1-20" d="m118.14,116.02h23.84v8.92c0,4.13-3.35,7.48-7.48,7.48h-8.88c-4.13,0-7.48-3.35-7.48-7.48v-8.92h0Z"/></g><path class="cls-18_online-shopping-1-20 targetColor" d="m141.86,116.02h23.84v8.92c0,4.13-3.35,7.48-7.48,7.48h-8.88c-4.13,0-7.48-3.35-7.48-7.48v-8.92h0Z" style="fill: rgb(104, 225, 253);"/><path class="cls-18_online-shopping-1-20 targetColor" d="m165.7,116.02h23.84v8.92c0,4.13-3.35,7.48-7.48,7.48h-8.88c-4.13,0-7.48-3.35-7.48-7.48v-8.92h0Z" style="fill: rgb(104, 225, 253);"/><g class="cls-6_online-shopping-1-20"><path class="cls-1_online-shopping-1-20" d="m165.7,116.02h23.84v8.92c0,4.13-3.35,7.48-7.48,7.48h-8.88c-4.13,0-7.48-3.35-7.48-7.48v-8.92h0Z"/></g><path class="cls-18_online-shopping-1-20 targetColor" d="m189.54,116.02h23.84v8.92c0,4.13-3.35,7.48-7.48,7.48h-8.88c-4.13,0-7.48-3.35-7.48-7.48v-8.92h0Z" style="fill: rgb(104, 225, 253);"/><path class="cls-18_online-shopping-1-20 targetColor" d="m213.37,116.02h23.84v8.92c0,4.13-3.35,7.48-7.48,7.48h-8.88c-4.13,0-7.48-3.35-7.48-7.48v-8.92h0Z" style="fill: rgb(104, 225, 253);"/><g class="cls-6_online-shopping-1-20"><path class="cls-1_online-shopping-1-20" d="m213.37,116.02h23.84v8.92c0,4.13-3.35,7.48-7.48,7.48h-8.88c-4.13,0-7.48-3.35-7.48-7.48v-8.92h0Z"/></g><path class="cls-18_online-shopping-1-20 targetColor" d="m237.09,116.02h23.84v8.92c0,4.13-3.35,7.48-7.48,7.48h-8.88c-4.13,0-7.48-3.35-7.48-7.48v-8.92h0Z" style="fill: rgb(104, 225, 253);"/><path class="cls-18_online-shopping-1-20 targetColor" d="m260.93,116.02h23.84v8.92c0,4.13-3.35,7.48-7.48,7.48h-8.88c-4.13,0-7.48-3.35-7.48-7.48v-8.92h0Z" style="fill: rgb(104, 225, 253);"/><g class="cls-6_online-shopping-1-20"><path class="cls-1_online-shopping-1-20" d="m260.93,116.02h23.84v8.92c0,4.13-3.35,7.48-7.48,7.48h-8.88c-4.13,0-7.48-3.35-7.48-7.48v-8.92h0Z"/></g><rect class="cls-15_online-shopping-1-20" x="120.17" y="180.32" width="97.41" height="97.41" rx="15.63" ry="15.63"/><rect class="cls-18_online-shopping-1-20 targetColor" x="139.6" y="312.11" width="58.1" height="31.19" style="fill: rgb(104, 225, 253);"/><path class="cls-1_online-shopping-1-20" d="m166.27,251.42c-.98,0-1.9-.45-2.5-1.23l-17.14-22.36c-1.06-1.38-.8-3.36.58-4.42,1.38-1.06,3.36-.8,4.42.58l14.33,18.7,22.31-36.92c.9-1.49,2.84-1.97,4.33-1.07,1.49.9,1.97,2.84,1.07,4.33l-24.7,40.87c-.54.89-1.48,1.46-2.52,1.52-.06,0-.12,0-.17,0Z"/><circle class="cls-3_online-shopping-1-20" cx="164.51" cy="403.97" r="13.67"/><rect class="cls-3_online-shopping-1-20" x="124.39" y="55.32" width="77.58" height="1.26"/></g><g id="plant_online-shopping-1-20"><g class="cls-4_online-shopping-1-20"><path class="cls-18_online-shopping-1-20 targetColor" d="m441.14,416.24s-12.92-3.53-15.73-15.55c0,0,20.01-4.04,20.58,16.61l-4.86-1.06Z" style="fill: rgb(104, 225, 253);"/></g><g class="cls-9_online-shopping-1-20"><path class="cls-18_online-shopping-1-20 targetColor" d="m442.72,414.96s-9.02-14.27-1.08-27.61c0,0,15.22,9.66,8.46,27.64l-7.37-.03Z" style="fill: rgb(104, 225, 253);"/></g><path class="cls-18_online-shopping-1-20 targetColor" d="m445.05,414.97s4.77-15.07,19.18-17.92c0,0,2.7,9.78-9.33,17.96l-9.85-.04Z" style="fill: rgb(104, 225, 253);"/><polygon class="cls-15_online-shopping-1-20" points="435.68 414.63 438.3 432.54 454.79 432.61 457.22 414.72 435.68 414.63"/></g><g id="person_online-shopping-1-20"><polygon class="cls-2_online-shopping-1-20" points="381.58 381.71 376.59 397.88 384.83 402.46 391.21 387.07 381.58 381.71"/><path class="cls-2_online-shopping-1-20" d="m337.59,203.5c11.39-14.03,34.02-11.43,41.43,5.05,2.03,4.52,3.43,10.2,3.73,17.35,1.54,35.72,19.99,55.2,36.91,49.04,16.92-6.15,25.12-36.01,25.12-36.01,0,0,13.84-9.87,16.92,0,3.08,9.87-9.74,9.93-9.74,9.93,0,0-16.44,96.6-88.18,34.8-45.36-39.08-37.85-65.79-26.2-80.15Z"/><g class="cls-11_online-shopping-1-20"><path class="cls-16_online-shopping-1-20" d="m337.59,203.5c11.39-14.03,34.02-11.43,41.43,5.05,2.03,4.52,3.43,10.2,3.73,17.35,1.54,35.72,19.99,55.2,36.91,49.04,16.92-6.15,25.12-36.01,25.12-36.01,0,0,13.84-9.87,16.92,0,3.08,9.87-9.74,9.93-9.74,9.93,0,0-16.44,96.6-88.18,34.8-45.36-39.08-37.85-65.79-26.2-80.15Z"/></g><polygon class="cls-17_online-shopping-1-20" points="234.6 296.89 276.35 311.76 265.52 363.99 212.16 344.98 234.6 296.89"/><g class="cls-8_online-shopping-1-20"><polygon class="cls-16_online-shopping-1-20" points="234.6 296.89 276.35 311.76 265.52 363.99 212.16 344.98 234.6 296.89"/></g><path class="cls-15_online-shopping-1-20" d="m268.27,313.37c-.12,0-.25-.04-.35-.11-.29-.2-.36-.59-.17-.88.13-.2,13.16-19.7.21-32.6-.25-.25-.25-.64,0-.89.25-.24.65-.25.89,0,13.7,13.64.08,34-.06,34.2-.12.18-.32.28-.52.28Z"/><polygon class="cls-17_online-shopping-1-20" points="244.29 307.2 288.58 308.73 294.09 361.79 237.48 359.83 244.29 307.2"/><path class="cls-2_online-shopping-1-20" d="m357.4,156.19s3.25,7.72,3.62,13.44c.15,2.32-1.64,4.35-3.96,4.46-2.88.14-6.82-.5-9.06-4.43l-4.63-6.2s-2.77-3.98.69-8.67c3.45-4.68,11.6-3.42,13.35,1.39Z"/><polygon class="cls-2_online-shopping-1-20" points="344.11 163.24 340.88 190.51 356.24 192.32 352.4 171.6 344.11 163.24"/><path class="cls-2_online-shopping-1-20" d="m359.2,161.16l3.21,2.36c.79.58.71,1.79-.15,2.26l-2.86,1.56-.2-6.17Z"/><g class="cls-12_online-shopping-1-20"><path class="cls-13_online-shopping-1-20" d="m352.74,173.35s-2.11-.2-4.17-1.65c0,0-1.74,9.65,5.74,10.19l-1.57-8.55Z"/></g><path class="cls-2_online-shopping-1-20" d="m350.11,164.79s-1.05-3.05-3.28-2.07c-2.23.98-.74,5.4,2.53,4.8l.75-2.73Z"/><path class="cls-15_online-shopping-1-20" d="m355.61,156.36c-1.7,1.12-4.1,2.18-7.45,3.03,0,0,1.94,9.26-4,14.22,0,0-11.74-10.21-5.83-18.44,4.95-6.9,8.38-12.62,15.89-9.9,4.8,1.74,5.66,8.28,1.4,11.1Z"/><circle class="cls-15_online-shopping-1-20" cx="332.4" cy="153.31" r="8.33"/><path class="cls-2_online-shopping-1-20" d="m350.15,163.86s-1.76-3.3-4.29-1.64c-2.53,1.66-.84,5.68,3.27,5.86l1.02-4.21Z"/><path class="cls-18_online-shopping-1-20 targetColor" d="m340.88,190.51l6.82.27c7.94.32,15.67,2.57,22.51,6.61,14.2,8.38,35.75,24.67,32.76,45.18-4.4,30.27-27.52,57.79-27.52,57.79l-56.68-2.2s-47.7-110.19,22.1-107.65Z" style="fill: rgb(104, 225, 253);"/><g class="cls-11_online-shopping-1-20"><path class="cls-16_online-shopping-1-20" d="m334.42,201.79s30.53,21.88,12.18,60.5c-18.34,38.62,4.75,37.13,4.75,37.13l-32.57-1.26-5.3-14,20.93-82.37Z"/></g><path class="cls-15_online-shopping-1-20" d="m318.78,298.16l11.01,107.87h29.41l-8.77-89.7,15.37,14.22c10.91,10.1,14.86,25.66,10.1,39.74l-4.27,12.63,31.65,13.76,5.11-28.5c2.52-14.06-1.19-28.52-10.16-39.63l-22.75-28.18-56.68-2.2Z"/><path class="cls-15_online-shopping-1-20" d="m281.18,312.74c-.06,0-.12,0-.18-.03-.33-.1-.52-.45-.42-.78.07-.23,6.58-22.76-9.68-31.13-.31-.16-.43-.54-.27-.85.16-.31.54-.43.85-.27,17.19,8.85,10.38,32.37,10.31,32.61-.08.27-.33.45-.6.45Z"/><path class="cls-2_online-shopping-1-20" d="m339.19,212.35c-1.45-15.37-20.72-21.82-31.18-10.47-6.35,6.89-11.44,17.11-11.63,32.22-.49,39.3-20.29,61.66-45.4,29.61-2.48-3.17-6.11-5.22-10.12-5.56-5.1-.44-11.29-.04-11.89,4.32-1.15,8.46,5.37,8.84,9.85,8.14,2.39-.37,4.76.75,5.93,2.87,4.9,8.91,18.99,30,41.12,26.75,23.92-3.51,57.73-41.04,53.32-87.88Z"/><rect class="cls-17_online-shopping-1-20" x="418.49" y="196.13" width="70.06" height="42.29"/><rect class="cls-17_online-shopping-1-20" x="418.49" y="169.67" width="43.7" height="26.45"/><g class="cls-6_online-shopping-1-20"><rect class="cls-1_online-shopping-1-20" x="418.49" y="169.67" width="43.7" height="26.45"/></g><rect class="cls-17_online-shopping-1-20" x="462.18" y="139.94" width="26.37" height="56.19"/><g class="cls-8_online-shopping-1-20"><rect class="cls-16_online-shopping-1-20" x="462.18" y="139.94" width="26.37" height="56.19"/></g><rect class="cls-15_online-shopping-1-20" x="418.29" y="215.76" width="70.78" height="1.86"/><circle class="cls-1_online-shopping-1-20" cx="454.46" cy="216.36" r="3.69"/><g class="cls-5_online-shopping-1-20"><rect class="cls-1_online-shopping-1-20" x="424.47" y="175.31" width="8.72" height="7.69"/></g><g class="cls-5_online-shopping-1-20"><rect class="cls-1_online-shopping-1-20" x="476.08" y="144.98" width="8.72" height="7.69"/></g><rect class="cls-17_online-shopping-1-20" x="427.72" y="144.98" width="34.47" height="24.7"/><polygon class="cls-2_online-shopping-1-20" points="340.14 406.03 343.64 422.59 353.07 422.59 351.16 406.03 340.14 406.03"/><path class="cls-18_online-shopping-1-20 targetColor" d="m343.64,422.59l1.88,8.2,21.19-8.2s-9.91-8.03-23.07,0Z" style="fill: rgb(104, 225, 253);"/><path class="cls-18_online-shopping-1-20 targetColor" d="m377.57,394.86l-5.25,6.58,19.62,11.47s.11-12.76-14.37-18.05Z" style="fill: rgb(104, 225, 253);"/><path class="cls-15_online-shopping-1-20" d="m252.47,312.74c-.34,0-.62-.27-.63-.61-.04-1.32-.7-32.32,18.4-34.15.35-.04.65.22.69.57s-.22.65-.57.69c-17.94,1.72-17.27,32.55-17.26,32.86,0,.35-.26.64-.61.65h-.02Z"/><path class="cls-15_online-shopping-1-20" d="m240.91,304.67c-.06,0-.12,0-.17-.02-.33-.1-.53-.44-.43-.78.36-1.27,9.12-31.01,27.88-26.97.34.07.56.41.48.75-.07.34-.4.56-.75.48-17.62-3.79-26.31,25.79-26.4,26.09-.08.28-.33.46-.61.46Z"/><rect class="cls-15_online-shopping-1-20" x="427.03" y="162.52" width="35.15" height=".95"/><path class="cls-15_online-shopping-1-20" d="m452.11,169.67h-.95v-24.43c-1.34-.8-7.5-4.77-6.13-9.37.34-1.13,1.04-1.86,1.99-2.07,1.21-.27,2.68.38,3.82,1.69.61.7,2.22,2.9,1.96,6.4.84-1.26,1.95-2.55,3.17-3.02.7-.27,1.37-.25,2.01.04,1.25.57,1.85,1.62,1.59,2.79-.39,1.81-2.89,3.75-7.43,3.75v-.46s-.03.06-.04.09v24.6Zm4.84-30.05c-.21,0-.42.04-.64.13-1.58.6-3.16,3.22-3.93,4.75,3.7-.06,5.95-1.54,6.27-3,.16-.73-.22-1.34-1.06-1.73-.21-.1-.42-.14-.64-.14Zm-9.37-4.94c-.12,0-.24.01-.35.04-.61.13-1.05.62-1.29,1.42-1.09,3.65,3.84,7.11,5.44,8.12,1.44-4.58-.57-7.38-1.25-8.15-.78-.9-1.75-1.43-2.55-1.43Z"/></g></svg>